<?xml version="1.0" encoding="utf-8"?>
<!-- Svg Vector Icons : http://www.onlinewebfonts.com/icon -->
<!DOCTYPE svg PUBLIC "-//W3C//DTD SVG 1.1//EN" "http://www.w3.org/Graphics/SVG/1.1/DTD/svg11.dtd">
<svg version="1.1" xmlns="http://www.w3.org/2000/svg" xmlns:xlink="http://www.w3.org/1999/xlink" x="0px" y="0px" viewBox="0 0 256 256" enable-background="new 0 0 256 256" xml:space="preserve">
<metadata> Svg Vector Icons : http://www.onlinewebfonts.com/icon </metadata>
<g><g><g><path fill="#000000" d="M198.8,10H57.2C31.2,10,10,31.2,10,57.2v141.6c0,26,21.2,47.2,47.2,47.2h141.6c26,0,47.2-21.2,47.2-47.2V57.2C246,31.2,224.8,10,198.8,10z M160.6,207.4c-8,6.1-18.1,9.1-30.3,9.1c-15.1,0-27.6-5.2-37.4-15.5c-9.8-10.4-14.6-24.5-14.6-42.5c0-19,4.9-33.7,14.7-44.3c9.8-10.5,22.7-15.8,38.7-15.8c14,0,25.3,4.1,34,12.4c5.2,4.9,9.1,11.9,11.7,21l-22.8,5.4c-1.3-5.9-4.2-10.6-8.5-14c-4.3-3.4-9.5-5.1-15.6-5.1c-8.5,0-15.3,3-20.6,9.1s-7.9,15.9-7.9,29.5c0,14.4,2.6,24.7,7.8,30.8c5.2,6.1,11.9,9.2,20.2,9.2c6.1,0,11.4-2,15.8-5.9c4.4-3.9,7.6-10,9.5-18.4l22.3,7.1C174.3,192.1,168.6,201.4,160.6,207.4z M209.1,98.4L128,58L46.9,98.4l-7.4-14.8l88.4-43.9l0-0.1l0.1,0l0.1,0l0,0.1l88.4,43.9L209.1,98.4z"/></g><g></g><g></g><g></g><g></g><g></g><g></g><g></g><g></g><g></g><g></g><g></g><g></g><g></g><g></g><g></g></g></g>
</svg>